<?xml version="1.0" encoding="utf-8"?>
<!-- Generator: Adobe Illustrator 19.0.1, SVG Export Plug-In . SVG Version: 6.00 Build 0)  -->
<svg version="1.1" id="Layer_1" xmlns="http://www.w3.org/2000/svg" xmlns:xlink="http://www.w3.org/1999/xlink" x="0px" y="0px"
	 viewBox="0 0 528.7 202.2" style="enable-background:new 0 0 528.7 202.2;" xml:space="preserve">
<style type="text/css">
	.st0{fill:#C7232E;}
	.st1{fill:#C8232E;}
	.st2{fill:#FFFFFF;}
</style>
<g>
	<path class="st0" d="M417.8,169.9c-16.2,1-25.8-12.3-25.8-12.3s-33-50.9-38.4-59.7c-12.7-25.5-35.7-19.6-35.7-19.6V126
		c-0.1,12.7,7.8,14.6,9.3,15.5c17.6,5.9,31.4,0,39-1.2c10.5-1.2,7.7,11.9,7.7,11.9s-9.5,8.5-34.4,15.3c-25.1,6.8-45.6-2.9-45.6-2.9
		s-24-10.8-24-33.8c0-23.1-0.3-52.5-0.3-52.5h-12l3.5,7.3v69.7c0,0-5,15.2-23.4,15.2c-18.4,0-22.8-14.8-22.8-14.8L214.5,97
		c0,0-3.4-20.6-23.7-18.2c-20.4,2.4-23.6,9.8-23.6,9.8s-0.2,61.2-0.2,66.6c0,5.4-4.4,15.3-23.8,15.3c-19.3,0-23.8-11.4-23.8-11.4
		s-20.5,11.4-47.2,11.4c-26.6,0-42.3-14.4-42.3-27.3c-0.7-13.4,11.6-25.7,29.2-31.1c17.7-5.3,60.2-15.7,60.2-15.7s4-18.3-26.1-18.3
		c-24.8-0.4-34.1,7-43.9,11.4c-9.8,4.4-11.6-2.4-11.6-2.4s19-30.9,69.5-32.8c42.1,1,53.4,15.7,53.4,15.7s25-17.2,46.5-15.1
		c27.5-0.6,44.1,14.1,44.1,14.1l60.7-49.9h6v35.6l48.4,0c0,0,14.7,0,20,8.7c5.4,8.7,19.1,33.5,23.6,41.8c4.4,8.5,10.2,7.8,16.3,0.3
		c6.1-7.5,44.9-63.5,47.4-66.5c8.7-11.8,25.4-6.9,33.7-15.2c6.9-4,16.5-19.3,20.7-23.3c0.2-0.3,0.4-0.4,0.5-0.7H44.4
		C22.2,0,0,17.6,0,39.6v162.6h484.3c22.1,0,44.4-21.9,44.4-44V21.7C513,47,440.3,158.2,440.3,158.2S434,169,417.8,169.9"/>
	<path class="st1" d="M85.6,147.9c11.3,6.4,33.8-6.4,33.8-6.4v-27.5c0,0-24.9,7.4-33.8,12.3C76.8,131.3,74.3,141.6,85.6,147.9"/>
	<path class="st2" d="M528.7,0c-0.2,0.2-0.4,0.4-0.5,0.7C523.9,4.7,514.4,20,507.5,24c-8.3,8.3-25,3.4-33.7,15.2
		c-2.5,2.9-41.3,59-47.4,66.5c-6.1,7.5-11.9,8.2-16.3-0.3c-4.5-8.4-18.2-33.1-23.6-41.8c-5.3-8.7-20-8.7-20-8.7l-48.4,0V19.2h-6
		l-60.7,49.8c0,0-16.6-14.7-44.1-14.1c-21.5-2-46.5,15.1-46.5,15.1s-11.3-14.7-53.4-15.7c-50.5,1.9-69.5,32.8-69.5,32.8
		s1.9,6.9,11.7,2.4c9.8-4.5,19.1-11.8,43.9-11.4c30.1,0,26.1,18.3,26.1,18.3s-42.6,10.3-60.2,15.7c-17.6,5.5-29.9,17.7-29.2,31.1
		c0,13,15.6,27.3,42.3,27.3c26.7,0,47.2-11.4,47.2-11.4s4.5,11.4,23.8,11.4c19.4,0,23.8-9.9,23.8-15.3c0-5.4,0.2-66.6,0.2-66.6
		s3.2-7.4,23.6-9.8c20.3-2.4,23.7,18.2,23.7,18.2l0.5,58.8c0,0,4.4,14.8,22.8,14.8c18.4,0,23.4-15.2,23.4-15.2V85.7l-3.5-7.3h12
		c0,0,0.3,29.4,0.3,52.5c0,23,24,33.8,24,33.8s20.6,9.7,45.6,2.9c24.9-6.8,34.4-15.3,34.4-15.3s2.8-13.1-7.7-11.9
		c-7.6,1.2-21.3,7.1-39,1.2c-1.4-1-9.4-2.9-9.3-15.5V78.3c0,0,23-5.8,35.7,19.6c5.4,8.9,38.4,59.7,38.4,59.7s9.6,13.3,25.8,12.3
		c16.1-0.9,22.5-11.7,22.5-11.7S513,47,528.7,21.7L528.7,0L528.7,0z M119.4,141.6c0,0-22.5,12.7-33.8,6.4c-11.2-6.4-8.8-16.7,0-21.6
		c8.9-4.9,33.8-12.3,33.8-12.3V141.6z"/>
</g>
</svg>
